<?xml version="1.0" encoding="UTF-8"?><svg id="Layer_2" xmlns="http://www.w3.org/2000/svg" xmlns:xlink="http://www.w3.org/1999/xlink" viewBox="0 0 382.75 383.99"><defs><linearGradient id="linear-gradient" x1="191.37" y1="0" x2="191.37" y2="383.99" gradientUnits="userSpaceOnUse"><stop offset=".32" stop-color="#1e79f4"/><stop offset=".91" stop-color="#0a5fd9"/></linearGradient></defs><g id="Layer_1-2"><path d="m382.74,49c.49-27.58-19.06-46.17-39.67-48.4-.31-.03-295.23-.6-295.23-.6-5.51,0-11.02.69-16.31,2.28-2.96.89-5.85,1.99-8.59,3.57C10.43,13.1,2.78,23.77.09,38.01c-.16.85-.06,306.23-.06,306.23,1.08,17.24,15.7,33.77,33.88,38.23.86.21,2.75.54,4.57.85,2.77.45,5.56.68,8.37.67,35.86-.06,296.7-.51,296.63-.73,18.37-1.62,35.14-17.83,38.38-37.18.43-2.58.74-5.21.74-7.82.03-56.62-.41-258.08.14-289.26Zm-218.03,225.12c0,11.54-6.01,17.6-17.47,17.6-20.08.01-40.17.01-60.25,0-10.38-.01-16.56-6.14-16.59-16.47-.07-21.25-.1-42.5-.15-63.74.06-1.5.17-2.99.17-4.48,0-39.47-.01-78.94-.02-118.42,0-11.97,5.65-17.61,17.62-17.61,19.58-.01,39.15-.01,58.72,0,12.06,0,17.75,5.74,17.77,17.97l.29,74.55c-.05,1.49-.11,75.23-.09,110.6Zm147.39-86.63c-.07,10.61-6.12,16.75-16.74,16.78-20.46.04-40.92.05-61.38-.01-10.18-.03-16.22-6.14-16.32-16.37-.08-8.12-.07-15.24-.11-23.37v-1c.05-9.24.14-18.47.15-27.71.02-16.24-.05-32.47.02-48.71.04-9.95,6.2-16.06,16.15-16.09,20.56-.05,41.13-.05,61.7,0,10.01.02,16.06,6.06,16.12,16.09.13,24.98.18,49.96.28,74.94.01,1.49.17,2.98.25,4.47-.04,6.99-.08,13.99-.12,20.98Z" style="fill:url(#linear-gradient);"/></g></svg>