<?xml version="1.0" encoding="UTF-8"?><svg id="Layer_2" xmlns="http://www.w3.org/2000/svg" viewBox="0 0 987.74 1036.05"><g id="Layer_1-2"><g><path d="m985.19,474.32c-2.04-14.88-3.66-29.8-6.23-44.62-4.61-26.64-11.79-52.54-20.87-78-5.46-15.29-11.69-30.23-18.62-44.88-8.14-17.17-17.36-33.77-27.53-49.85-27.47-43.4-60.98-81.46-100.36-114.4-12.78-10.7-26.87-19.71-39.71-30.25-20.15-16.54-41.95-30.27-64.89-42.45-20.95-11.11-42.87-20.13-64.25-30.33-12.71-6.07-25.79-11.38-38.37-17.71-11.33-5.7-22.19-12.32-33.26-18.51-2.87-1.61-5.83-3.03-9.2-3.21-10.32-.55-20.34.87-30.05,4.42-9.88,3.61-19.62,7.56-27.48,14.82-4.9,4.52-4.59,6.19,1.08,9.6,3.87,2.33,7.76,4.61,11.64,6.91-7.99,1.66-15.69,1.37-23.36,2.11-13.47,1.29-27.07,1.23-40.57,2.33-5.28.43-10.57.52-15.83.97-16.99,1.46-33.96,3.24-50.94,4.91-5.91.57-11.82,1.1-17.71,1.79-11.57,1.35-23.09,3.14-34.69,4.1-9.34.78-18.54,2.43-27.8,3.72-10.12,1.42-20.13,3.61-30.23,5.27-15.31,2.52-30.42,5.91-44.89,11.55-27.98,10.88-52.05,27.84-73.46,48.67-33.27,32.38-58.38,70.57-79.13,111.83-6.04,11.99-11.53,24.24-17.05,36.48-5.22,11.6-9.16,23.66-13.76,35.48-7.36,18.94-13.16,38.37-18.43,57.92-5.2,19.28-9.78,38.75-13.49,58.41-2.74,14.56-5.65,29.09-7.61,43.76-1.66,12.5-2.83,25.08-4.4,37.58-2.23,17.73-3.11,35.5-3.49,53.26-.5,23.07-.24,46.17.61,69.26.5,13.54,1.73,26.94,3.07,40.39,1.82,18.24,4.69,36.33,8.36,54.23,4.78,23.32,10.79,46.34,18.78,68.86,7.63,21.5,16.8,42.2,27.75,62.16,8.4,15.32,18.09,29.79,29.03,43.4,29.4,36.62,65.26,65.41,106.58,87.56,12.26,6.57,24.81,12.57,37.58,18.04,11.83,5.07,24.16,8.87,36.36,12.95,13.61,4.56,27.51,7.94,41.47,11.06,16.23,3.63,32.59,6.42,49.17,8.27,13.42,1.49,26.89,3.42,40.29,3.47,23.35.09,46.71,1.41,70.13-1.32,13.18-1.54,26.58-1.84,39.85-3.43,17.89-2.13,35.61-5.26,53.12-9.28,26.71-6.12,53.15-13.27,78.98-22.58,24.02-8.65,47.55-18.39,70.37-29.82,51.39-25.72,98.18-57.98,139.13-98.48,40.62-40.18,72.86-86.08,95.4-138.72,9.73-22.71,16.74-46.21,22.82-70.09,4.35-17.11,8.08-34.32,10.87-51.75,1.66-10.35,3.38-20.66,4.07-31.16.75-11.27,3.36-22.47,3.47-33.72.24-23.66.93-47.32-2.32-70.98Zm-69.63,28.24c-.36,18.64-2.28,37.17-4.45,55.7-1.25,10.78-2.71,21.53-4.7,32.16-2.38,12.74-5.9,25.29-9.26,37.84-7.34,27.45-16.77,54.18-28.7,79.99-27.24,58.97-63.4,111.61-111.56,155.56-37.31,34.06-79.41,60.31-127.43,76.6-19.5,6.61-39.47,11.71-59.69,15.28-16.3,2.87-32.82,4.64-49.33,6.4-27.51,2.93-55.06,2.15-82.56,1.58-15.85-.33-31.74-2.33-47.55-4.5-21.97-3.01-43.75-6.77-65.24-12.25-19.79-5.04-39.19-11.19-58.22-18.66-39.17-15.38-75.38-35.57-106.59-64.11-16.21-14.82-29.91-31.67-41.03-50.67-10.16-17.37-18.3-35.6-24.97-54.57-4.79-13.65-9.44-27.38-12.69-41.43-3.39-14.59-6.32-29.32-8.72-44.16-2.34-14.53-4.12-29.11-5.68-43.71-2.31-21.6-2.5-43.34-2.09-65.07,0-12.49-.66-25.03.2-37.47.73-10.64,1.47-21.31,2.51-31.95,1.02-10.27,2.41-20.5,3.36-30.78.82-8.91,2.39-17.76,3.99-26.58,2.89-15.97,5.86-31.92,9.86-47.67,5.03-19.77,10.49-39.41,17.11-58.7,9.08-26.47,20.36-52.09,34.15-76.35,21.73-38.22,48.33-72.51,85.76-97.09,18.68-12.27,39.4-20.07,60.11-27.88,29.51-11.13,59.55-20.67,90.58-26.49,14.4-2.7,28.89-5.17,43.56-6.59,18.44-1.79,36.82-4.2,55.38-3.78,16.77.38,33.01,4.24,49.15,8.45,19.35,5.03,37.08,13.88,54.92,22.63,14.41,7.08,28.63,14.42,42.55,22.42,6.42,3.69,13.39,6.37,19.88,10.03,5.16,2.91,10.93,1.34,16.33.18,10.77-2.33,21.14-5.93,30.98-10.9,1.38-.69,2.33-1.03,3.6-.31,13.06,7.41,26.65,13.81,39.82,21.02,34.39,18.81,66.33,40.55,92.4,70.38,22.61,25.87,42.01,53.78,56.52,84.91,10.18,21.84,18.45,44.4,24.27,67.9,3.86,15.55,6.76,31.17,8.93,47.02,2.98,21.79,4.96,43.64,4.54,65.62Z" style="fill:#3f3f3f;"/><path d="m911.02,436.94c-2.17-15.85-5.07-31.47-8.93-47.02-5.82-23.5-14.09-46.06-24.27-67.9-14.51-31.13-33.91-59.04-56.52-84.91-26.07-29.83-58.01-51.57-92.4-70.38-13.17-7.21-26.76-13.61-39.82-21.02-1.27-.72-2.22-.38-3.6.31-9.84,4.97-20.21,8.57-30.98,10.9-5.4,1.16-11.17,2.73-16.33-.18-6.49-3.66-13.46-6.34-19.88-10.03-13.92-8-28.14-15.34-42.55-22.42-17.84-8.75-35.57-17.6-54.92-22.63-16.14-4.21-32.38-8.07-49.15-8.45-18.56-.42-36.94,1.99-55.38,3.78-14.67,1.42-29.16,3.89-43.56,6.59-31.03,5.82-61.07,15.36-90.58,26.49-20.71,7.81-41.43,15.61-60.11,27.88-37.43,24.58-64.03,58.87-85.76,97.09-13.79,24.26-25.07,49.88-34.15,76.35-6.62,19.29-12.08,38.93-17.11,58.7-4,15.75-6.97,31.7-9.86,47.67-1.6,8.82-3.17,17.67-3.99,26.58-.95,10.28-2.34,20.51-3.36,30.78-1.04,10.64-1.78,21.31-2.51,31.95-.86,12.44-.2,24.98-.2,37.47-.41,21.73-.22,43.47,2.09,65.07,1.56,14.6,3.34,29.18,5.68,43.71,2.4,14.84,5.33,29.57,8.72,44.16,3.25,14.05,7.9,27.78,12.69,41.43,6.67,18.97,14.81,37.2,24.97,54.57,11.12,19,24.82,35.85,41.03,50.67,31.21,28.54,67.42,48.73,106.59,64.11,19.03,7.47,38.43,13.62,58.22,18.66,21.49,5.48,43.27,9.24,65.24,12.25,15.81,2.17,31.7,4.17,47.55,4.5,27.5.57,55.05,1.35,82.56-1.58,16.51-1.76,33.03-3.53,49.33-6.4,20.22-3.57,40.19-8.67,59.69-15.28,48.02-16.29,90.12-42.54,127.43-76.6,48.16-43.95,84.32-96.59,111.56-155.56,11.93-25.81,21.36-52.54,28.7-79.99,3.36-12.55,6.88-25.1,9.26-37.84,1.99-10.63,3.45-21.38,4.7-32.16,2.17-18.53,4.09-37.06,4.45-55.7.42-21.98-1.56-43.83-4.54-65.62Zm-307.73-26.26c4.07-14.27,15.58-22.14,29.16-26.04,21.35-6.13,42.09.05,53.95,21.22,3.86,6.88,5.13,14.43,5.58,20.42-.56,27.43-18.17,45.48-40.72,50.73-13.35,3.12-24.77-.69-33.97-10.03-15.6-15.83-20.02-35.2-14-56.3Zm-327.69-8.84c6.55-17.58,20.13-24.89,37.89-25.6,25.7-1.01,44.36,17.01,47.66,41.65,1.58,11.78.7,22.95-4.32,33.57-5.48,11.62-16.71,20.77-38.28,20.65-25.74,1.52-43.63-20.55-45.67-41.52-.96-9.82-.76-19.39,2.72-28.75Zm472.35,189.49c-2.6,20.09-7.27,39.67-15.55,58.21-13.38,29.97-33.89,54.21-60.2,73.64-29.76,21.98-63.38,35.3-99.09,43.75-15.95,3.78-32.13,6.13-48.52,7.4-11.13.86-22.25.51-29.55,1.03-19.56.17-35.27-.59-50.93-2.37-22.62-2.57-44.83-7.36-66.49-14.23-17.21-5.47-34.32-11.39-50.46-19.73-32.65-16.87-62.39-37.5-85.68-66.42-10.97-13.61-20.32-28.33-26.75-44.54-5.91-14.88-10.32-30.26-11.87-46.43-.71-7.46-.69-14.87-.84-22.3-.13-6.2,2.7-9.66,8.09-11.04,6.59-1.68,9.9-.26,13.31,5.65,3.54,6.15,4.6,13.18,6.99,19.74,6.83,18.76,18.51,34.13,32.14,48.22,14.2,14.7,30.61,26.62,48.12,37.08,30.66,18.31,63.51,31.08,98.32,38.94,14.01,3.17,28.17,5.26,42.4,7.24,20.19,2.81,40.4,2.13,60.57,1.62,13.69-.35,27.26-3,40.83-5.5,29.69-5.46,57.74-15.22,84.17-29.61,35.76-19.48,65.46-45.95,89.42-78.87,2.35-3.22,4.62-6.53,7.85-9,3.1-2.36,6.44-2.45,9.85-.87,3.62,1.67,4.33,4.85,3.87,8.39Z" style="fill:#fff;"/><path d="m495.04,775.36c-19.56.17-35.27-.59-50.93-2.37-22.62-2.57-44.83-7.36-66.49-14.23-17.21-5.46-34.33-11.38-50.46-19.72-32.65-16.87-62.39-37.5-85.68-66.43-10.96-13.61-20.31-28.32-26.75-44.53-5.91-14.88-10.32-30.26-11.87-46.43-.71-7.46-.7-14.87-.84-22.3-.12-6.21,2.7-9.67,8.09-11.04,6.59-1.68,9.9-.26,13.31,5.65,3.54,6.14,4.6,13.18,6.98,19.74,6.83,18.76,18.52,34.13,32.14,48.22,14.21,14.69,30.62,26.62,48.13,37.07,30.66,18.31,63.51,31.08,98.32,38.95,14.01,3.17,28.17,5.26,42.4,7.24,20.19,2.81,40.4,2.13,60.57,1.62,13.69-.35,27.26-3,40.83-5.5,29.7-5.46,57.75-15.22,84.17-29.61,35.76-19.48,65.46-45.94,89.42-78.86,2.35-3.23,4.62-6.54,7.85-9,3.1-2.36,6.44-2.45,9.85-.87,3.62,1.67,4.33,4.84,3.87,8.39-2.61,20.09-7.28,39.67-15.56,58.21-13.38,29.96-33.89,54.2-60.2,73.64-29.76,21.98-63.38,35.3-99.09,43.75-15.95,3.77-32.12,6.13-48.52,7.4-11.13.86-22.24.51-29.55,1.03Z" style="fill:#3f3f3f;"/><path d="m318.55,472.12c-25.74,1.52-43.63-20.55-45.67-41.52-.96-9.82-.76-19.39,2.73-28.75,6.55-17.58,20.13-24.89,37.89-25.6,25.7-1.02,44.36,17.01,47.66,41.64,1.58,11.78.69,22.95-4.32,33.57-5.49,11.62-16.71,20.77-38.28,20.65Z" style="fill:#3f3f3f;"/><path d="m691.98,426.28c-.56,27.43-18.17,45.48-40.71,50.74-13.36,3.11-24.77-.7-33.98-10.04-15.6-15.83-20.02-35.2-14-56.3,4.07-14.26,15.58-22.14,29.16-26.04,21.35-6.13,42.09.06,53.95,21.22,3.86,6.88,5.13,14.43,5.57,20.42Z" style="fill:#3f3f3f;"/></g></g></svg>