<?xml version="1.0" encoding="UTF-8"?><svg id="Layer_2" xmlns="http://www.w3.org/2000/svg" viewBox="0 0 801.21 884.86"><g id="Layer_1-2"><path d="m751.05,435.67c0-45.49-36.88-82.36-82.36-82.36-2.93,0-5.81.16-8.66.46L773.15,20.12h-480.74l112.97,333.36c-1.67-.11-3.34-.16-5.01-.16-45.49,0-82.36,36.87-82.36,82.36,0,36.77,24.1,67.9,57.35,78.49-17.56,30.42-39.67,57.83-64.76,81.51-34.12,32.19-73.18,56.6-115.41,71.64-50.29-25.83-74.03-83.29-52.61-133.66,2.42-5.69,4.89-11.46,7.25-17.2,36.43-8.5,63.58-41.16,63.58-80.19,0-45.49-36.88-82.36-82.36-82.36s-82.36,36.87-82.36,82.36c0,27.89,13.88,52.53,35.09,67.43-20.39,46.41-50.35,94.99-59.69,151.29-11.19,67.47-.04,139.09,58.32,179.54,135.9,94.19,283.43-58.39,438.97-96.75,56.37-13.9,118.25-11.66,167.92-40.42,37.3-21.6,61.89-57.4,68.86-97.59,6.9-39.7-3.15-79.24-26.27-111.29,12.4-14.79,19.18-33.49,19.16-52.79" style="fill:#99425b;"/><path d="m738.34,596.31c-6.06,34.89-27.61,65.37-59.12,83.63-29.38,17.01-64.59,22.09-101.86,27.47-19.97,2.88-40.62,5.86-60.79,10.83-53.34,13.15-105,38.81-154.95,63.63-99.98,49.66-186.33,92.54-267.74,36.12-59.64-41.33-56.89-117.81-49.94-159.71,6.44-38.83,23.85-74.58,40.68-109.16,2.87-5.88,5.71-11.76,8.53-17.66,8.49,3.39,17.39,5.63,26.47,6.64-17.14,56.56,9.81,118.05,66.38,147.11l7.74,3.98,8.2-2.92c44.72-15.93,85.92-41.48,122.47-75.96,23.62-22.29,43.94-46.95,60.63-73.29,5.08.77,10.2,1.15,15.33,1.15,51.92,0,94.91-38.81,101.56-88.94,21.25-.78,43.82-.78,65.19,0,6.65,50.13,49.64,88.95,101.56,88.95,21.71,0,41.84-6.8,58.43-18.36,11.52,23.57,15.81,50.1,11.23,76.52h0ZM131.05,374.01c34.32,0,62.25,27.93,62.25,62.25,0,12.33-3.62,23.82-9.83,33.51-10.35,16.14-27.93,27.2-48.14,28.58-1.41.09-2.84.16-4.28.16-7.65,0-14.98-1.4-21.75-3.93-13.64-5.13-25.07-14.86-32.31-27.52-5.37-9.37-8.2-19.99-8.19-30.8,0-34.32,27.93-62.25,62.25-62.25h0Zm207.08,61.66c0-31.19,23.05-57.08,53.01-61.56,3.02-.45,6.1-.69,9.24-.69,19.96,0,37.72,9.45,49.12,24.1,2.85,3.65,5.29,7.61,7.27,11.8,3.87,8.24,5.87,17.24,5.86,26.34,0,4.98-.6,9.81-1.71,14.45-6.07,25.4-27.72,44.81-54.26,47.48-2.06.21-4.16.31-6.28.31-11.97,0-23.69-3.45-33.73-9.97-17.14-11.1-28.51-30.38-28.51-52.27h0Zm259.8-74.02c-13.55,12.93-23.29,29.32-28.19,47.39-23.46-.86-46.95-.86-70.41,0-5.27-19.54-16.18-36.78-30.87-49.87l64.41-130.24,65.06,132.72ZM320.47,40.24h424.62l-100.29,295.79c-4.31,1.03-8.56,2.35-12.7,3.93l-99.07-202.1-99.35,200.9c-4.33-1.49-8.76-2.68-13.25-3.57L320.47,40.24Zm410.46,395.44c0,6.24-.93,12.26-2.65,17.96-4.07,13.4-12.52,25.04-23.99,33.06-10.43,7.32-22.86,11.24-35.61,11.23-28.74,0-52.98-19.59-60.11-46.11-1.42-5.26-2.13-10.69-2.13-16.14,0-8.51,1.72-16.62,4.82-24.02,1.6-3.78,3.57-7.4,5.89-10.79,11.2-16.54,30.1-27.44,51.54-27.44,1.97,0,3.9.1,5.83.28,31.6,2.94,56.42,29.6,56.42,61.96h0Zm40.23,0c0-50.03-36.05-91.78-83.53-100.69L801.21,0H264.36l113.75,335.66c-45.83,10.2-80.21,51.15-80.21,100.01,0,36.69,19.39,68.91,48.45,87.02-13.98,20.82-30.55,40.42-49.54,58.34-30.12,28.41-63.68,49.97-99.86,64.15-36.44-22.89-51.84-66.06-35.85-103.66l1.25-2.95,2.35-5.53c40.02-13.96,68.83-52.05,68.83-96.77,0-56.51-45.97-102.48-102.48-102.48s-102.48,45.97-102.48,102.48c0,28.52,11.73,54.35,30.59,72.95-3.52,7.46-7.09,14.89-10.72,22.29-17.25,35.43-36.8,75.59-44.2,120.19-14.69,88.57,9,159.37,66.71,199.36,35.01,24.27,70.57,33.81,106.36,33.81,67.38,0,135.53-33.85,202.2-66.96,48.01-23.84,97.66-48.5,146.69-60.6,18.25-4.5,37.02-7.21,56.9-10.07,39.42-5.69,80.18-11.57,116.28-32.47,41.85-24.24,70.5-64.9,78.6-111.56,6.95-40.05-1.41-80.17-21.82-114.19,9.83-16.05,15.03-34.51,15.01-53.33h0Z" style="fill:#fff;"/></g></svg>