<?xml version="1.0" encoding="UTF-8"?><svg id="Layer_2" xmlns="http://www.w3.org/2000/svg" xmlns:xlink="http://www.w3.org/1999/xlink" viewBox="0 0 310 310"><defs><clipPath id="clippath"><rect width="310" height="310" style="fill:none;"/></clipPath><clipPath id="clippath-1"><rect width="310" height="310" style="fill:none;"/></clipPath></defs><g id="Layer_1-2"><g id="U_Cube_Black"><g style="clip-path:url(#clippath);"><g style="clip-path:url(#clippath-1);"><g><path d="m283.42,212.46V78.24L167.18,11.12v51.49l45.55,26.29c1.22.73,1.61,2.31.88,3.53-.22.36-.52.67-.88.88l-54.14,31.26c-1.58.91-3.52.91-5.1,0l-54.13-31.26c-1.22-.72-1.62-2.29-.9-3.51.22-.37.53-.68.9-.9l45.54-26.29V11.12L28.65,78.24v134.22l44.58-25.74v-52.6c.02-1.41,1.18-2.54,2.6-2.52.43,0,.85.12,1.22.33l54.14,31.25c1.58.91,2.55,2.6,2.55,4.42v62.51c-.01,1.41-1.17,2.55-2.58,2.54-.43,0-.85-.11-1.22-.32l-45.56-26.33-44.59,25.74,116.21,67.14,116.24-67.12-44.55-25.76-45.55,26.3c-1.23.69-2.79.25-3.48-.98-.21-.37-.32-.8-.33-1.23v-62.49c0-1.82.97-3.51,2.55-4.42l54.12-31.25c1.24-.7,2.8-.26,3.5.98.21.37.32.79.33,1.22v52.59l44.59,25.74Z" style="fill:#ccc;"/><path d="m156,298.88l116.24-67.11-44.55-25.77-45.55,26.3c-1.23.69-2.79.25-3.48-.98-.21-.37-.32-.8-.33-1.23v-62.49c0-1.82.97-3.51,2.55-4.42l54.12-31.25c1.24-.7,2.8-.26,3.5.98.21.37.32.79.33,1.22v52.59l44.58,25.74V78.23l-127.41,73.55v147.1Z"/><path d="m167.18,11.12v51.49l45.55,26.29c1.22.73,1.61,2.31.88,3.53-.22.36-.52.67-.88.88l-54.14,31.26c-1.58.91-3.52.91-5.1,0l-54.13-31.26c-1.22-.72-1.62-2.29-.9-3.51.22-.37.53-.68.9-.9l45.54-26.29V11.12L28.65,78.24l127.35,73.54,127.39-73.54L167.18,11.12Z" style="fill:gray;"/><path d="m129.94,232.33l-45.56-26.33-44.59,25.75,116.21,67.13v-147.1L28.65,78.24v134.22l44.58-25.74v-52.6c.02-1.41,1.18-2.54,2.6-2.52.43,0,.85.12,1.22.33l54.14,31.25c1.58.91,2.55,2.6,2.55,4.42v62.51c-.01,1.41-1.17,2.55-2.58,2.54-.43,0-.85-.11-1.22-.32" style="fill:#4d4d4d;"/></g></g></g></g></g></svg>