<?xml version="1.0" encoding="UTF-8"?><svg id="Layer_2" xmlns="http://www.w3.org/2000/svg" viewBox="0 0 1171 1042"><g id="Layer_1-2"><g><path d="m832,1042h-493c-1.14-.23-2.27-.54-3.42-.67-37.2-3.97-64.55-22.63-83.17-54.93-72.49-125.78-145.19-251.43-217.61-377.24-14.28-24.8-31.82-48.28-34.8-78.16v-25c3.95-14.5,8.37-28.74,16.25-41.81,11.94-19.8,23.24-39.99,34.8-60.02C118.52,287.3,186,170.44,253.44,53.56c14.02-24.3,34.25-40.84,61.04-49.25C319.6,2.7,324.82,1.43,330,0c169.33,0,338.67,0,508,0,.74.3,1.45.77,2.22.89,34.12,5.31,59.76,22.98,77.01,52.86,79.82,138.25,159.64,276.5,239.47,414.75,5.03,8.71,8.69,17.97,11.11,27.71,1.14,4.58,2.13,9.19,3.2,13.79v22c-.31.34-.85.64-.89,1.01-2.02,18.65-10.07,34.9-19.47,50.78-17.35,29.31-34.31,58.86-51.44,88.31-1.86-1.66-3.8-3.23-5.56-4.98-51.71-51.68-103.4-103.38-155.12-155.05-2.47-2.46-5.18-4.68-7.78-7.01-3.21-6.6-9.62-8.52-15.78-10.83-1.16-1.41-2.21-2.93-3.49-4.21-100.37-100.4-200.76-200.78-301.15-301.15-1.63-1.63-3.1-3.55-5.64-3.89-4.15-9.79-12.32-10.55-21.52-10.25-13.7.44-16.92,2.51-21.02,15.6-6.3,20.12-12.77,40.19-18.88,60.36-2.54,8.38-6.16,16.47-7.23,25.27,10.65,10.99,21.31,21.98,31.96,32.97-8.06,1.19-16.2,1.99-24.17,3.64-92.85,19.27-158.61,91.85-170,187.45-10.96-10.66-21.92-21.32-32.89-31.98-30.4,9.47-60.84,18.84-91.19,28.49-7.24,2.3-10.87,7.63-10.66,15.56.25,9.14.44,18.3-.06,27.42-.43,7.82,2.09,13.58,8.91,17.42.51,2.68,2.66,4.16,4.4,5.91,157.85,157.89,315.73,315.77,473.53,473.71,3.2,3.21,6.45,4.56,10.97,4.55,31.82-.07,63.64.09,95.46.18.05.31-.06.55-.33.72Z" style="fill:#4486f7;"/><path d="m1099.21,672.09c-15.88,27.72-31.69,55.47-47.65,83.14-44.74,77.57-89.41,155.17-134.36,232.61-18.85,32.48-46.92,50.97-84.87,53.43-31.82-.09-63.64-.25-95.46-.18-4.53.01-7.77-1.35-10.97-4.55-157.8-157.95-315.68-315.82-473.53-473.71-1.74-1.74-3.9-3.22-4.4-5.91,2.93.41,5.87,1.17,8.8,1.18,25.13.1,50.25.07,75.38.02,1.9,0,3.97.67,5.91-.92-4.3-29.84-3.21-59.59,2.9-89.17,10.96,10.66,21.92,21.32,32.89,31.98-1.25,14.81-1.24,29.61.34,44.38,12.45,116.46,119.29,201.27,236.09,187.41,108.6-12.88,189.39-105.82,187.26-215.41-1.68-86.07-55.3-162.6-135.46-193.65-30.35-11.76-61.76-15.68-94.07-13.83-10.65-10.99-21.31-21.98-31.96-32.97,33.5-7.08,67.02-6.39,101.07.3-10.98-30.91-21.7-61.1-32.42-91.29,2.54.33,4.01,2.25,5.64,3.89,100.39,100.37,200.78,200.75,301.15,301.15,1.28,1.28,2.33,2.8,3.49,4.21-28.2-8.69-56.4-17.39-85.49-26.35,6.53,30.21,7.21,59.95,3.05,90.24,29.07,0,57.36.35,85.64-.24,7.01-.15,12.73-5.13,13.03-12.89.51-13.29,1.04-26.63-.46-39.92,2.6,2.33,5.32,4.55,7.78,7.01,51.72,51.67,103.41,103.38,155.12,155.05,1.76,1.76,3.7,3.33,5.56,4.98Z" style="fill:#407bde;"/><path d="m585.48,681.83c-89.14.02-160.96-72.18-160.96-161.8s72.3-160.04,163.07-160.02c86.74.02,158.69,73.13,158.57,161.13-.12,88.48-72.31,160.67-160.68,160.69Zm55.91-210.51c-33.08-30.91-78.15-27.2-105.08-3.12-13.95,12.47-22.6,27.94-25.08,46.45-3.34,24.89,3.96,46.65,21.52,65.48-6.87,6.62-13.41,12.94-19.9,19.2,19.51,24.96,64.83,37.94,100.31,27.91,43.36-12.26,69.82-41.18,77.39-85.5,5.91-34.61-5-64.77-29.62-90.66-6.84,7.09-13.07,13.56-19.53,20.25Z" style="fill:#407bde;"/><path d="m585.47,569.16c-26.92.02-48.69-21.66-48.61-48.42.08-26.58,21.68-48.23,48.28-48.38,26.57-.16,48.74,21.95,48.69,48.56-.05,26.55-21.77,48.22-48.36,48.25Z" style="fill:#407bde;"/></g></g></svg>