<svg xmlns="http://www.w3.org/2000/svg" version="1.1" xmlns:xlink="http://www.w3.org/1999/xlink" xmlns:svgjs="http://svgjs.com/svgjs" width="1000" height="1000"><rect width="1000" height="1000" rx="100" ry="100" fill="#ffffff"></rect><g transform="matrix(1.7777777777777777,0,0,1.7777777777777777,99.73632982042102,100)"><svg xmlns="http://www.w3.org/2000/svg" version="1.1" xmlns:xlink="http://www.w3.org/1999/xlink" xmlns:svgjs="http://svgjs.com/svgjs" width="450" height="450"><svg width="450" height="450" viewBox="0 0 450 450" fill="none" xmlns="http://www.w3.org/2000/svg">
<g clip-path="url(#clip0_1199_34643)">
<path d="M131.778 248.521L106.617 293.902L52.1805 195.702V345H8V105H52.2196L131.778 248.521Z" fill="#111111"></path>
<path d="M268.78 130.474V201.139L244.916 224.997L268.78 248.86V345H224.599V210.176L268.78 130.474Z" fill="#111111"></path>
<path d="M224.599 105V105.02L91.5427 345H135.697L268.78 105.02V105H224.599Z" fill="#00D4E7"></path>
<path d="M322.675 224.997L442.678 345H380.457L260.46 224.997L380.437 105H442.678L322.675 224.997Z" fill="#00B2E7"></path>
</g>
<defs>
<clipPath id="clip0_1199_34643">
<rect width="434.678" height="240" fill="white" transform="translate(8 105)"></rect>
</clipPath>
</defs>
</svg></svg></g></svg>