<svg width="167" height="160" viewBox="0 0 167 160" fill="none" xmlns="http://www.w3.org/2000/svg">
<g style="mix-blend-mode:luminosity" clip-path="url(#clip0_1574_25376)">
<path d="M48.8771 66.4002C42.2657 65.8243 36.138 65.0871 30.7014 64.1887C17.2481 61.9657 9.23145 58.8558 9.23145 55.8841C9.23145 52.9124 17.2481 49.8024 30.7014 47.5679C32.8323 47.2109 35.0668 46.8883 37.3935 46.5889C34.56 50.3668 32.8899 55.0663 32.8899 60.1458V62.6107C32.8899 62.6107 32.9129 62.6798 32.9474 62.6913C37.5893 63.9929 42.9222 65.2829 48.8771 66.4002Z" fill="#BBBBBB"/>
<path d="M157.399 55.8846C157.399 58.8563 149.371 61.9663 135.929 64.1893C130.4 65.1107 124.146 65.8594 117.385 66.4353C118.041 66.3086 118.709 66.1934 119.343 66.0667C120.184 65.9055 121.001 65.7327 121.819 65.5599C122.545 65.4102 123.248 65.2489 123.95 65.0992C124.641 64.938 125.332 64.7882 126.012 64.627C126.691 64.4657 127.348 64.3045 128.005 64.1432C128.661 63.9819 129.295 63.8207 129.928 63.6594C131.172 63.3369 132.37 63.0144 133.533 62.6919C133.533 62.6919 133.568 62.6689 133.579 62.6689V60.1464C133.579 55.0553 131.898 50.3559 129.053 46.5664H129.087C131.46 46.8774 133.752 47.2114 135.918 47.5685C149.359 49.7915 157.387 52.9014 157.387 55.8846H157.399Z" fill="#BBBBBB"/>
<path d="M166.12 54.916C165.625 45.0449 153.773 41.2784 133.351 38.5371C127.5 32.4439 119.483 29 110.879 29H55.7413C47.1603 29 39.1666 32.4094 33.3154 38.4795C30.4128 38.8596 25.6903 39.5737 20.9563 40.6104C14.3219 42.0616 0.5 45.1025 0.5 55.5264C0.5 56.7819 0.684291 58.0259 1.05287 59.2353L20.6569 123.622L24.7919 125.073C28.2128 126.237 31.7374 127.296 35.2504 128.218C35.4578 128.275 40.4567 129.589 45.8933 130.625C62.8481 133.873 81.5767 134 82.3599 134C83.1892 134 84.0877 134 85.0552 134C93.7054 134 107.827 133.677 124.954 129.876C130.771 128.586 136.588 126.974 142.335 125.05L146.39 123.634L147.668 119.441C150.456 109.973 153.312 100.39 156.088 91.0716L156.664 89.1251C159.59 79.2885 162.619 69.1179 165.579 59.0856C165.844 58.1987 166.005 57.3233 166.086 56.3788C166.12 55.8489 166.132 55.3882 166.097 54.9045L166.12 54.916ZM157.044 57.7264C151.216 77.4801 145.388 97.2339 139.559 116.999C139.548 117.022 139.525 117.045 139.502 117.057C135.586 118.393 129.976 120.121 123.111 121.595C108.829 124.659 97.9441 125.154 83.3735 125.177C70.0585 125.2 60.4177 124.739 47.4943 122.286C43.6703 121.572 40.1687 120.743 37.0127 119.913C33.3499 118.934 30.1709 117.944 27.5563 117.057C27.5217 117.045 27.4987 117.022 27.4987 116.999L9.38054 57.4845C9.38054 57.4845 9.39206 57.45 9.40358 57.4269C9.02348 56.9201 8.80463 56.4018 8.80463 55.8835C8.80463 55.3652 8.9774 54.9045 9.32295 54.4322C9.40358 54.3055 9.50724 54.1788 9.6109 54.0636C10.014 53.6144 10.5669 53.1652 11.258 52.7505C11.2926 52.7275 11.3156 52.7045 11.3386 52.693C11.3386 52.693 11.3617 52.6814 11.3732 52.6699C11.3732 52.6699 11.3962 52.6699 11.4077 52.6584C15.704 50.0207 25.1259 47.7516 37.7614 46.1276H37.7729C41.931 40.8753 48.3812 37.5004 55.6146 37.5004H110.752C117.963 37.5004 124.401 40.8638 128.559 46.093C139.237 47.4522 147.645 49.2605 152.656 51.3684H152.667C155.224 52.4511 156.906 53.6029 157.528 54.8008C157.735 55.1579 157.827 55.5264 157.827 55.895C157.827 56.5055 157.551 57.0929 157.044 57.6803C157.044 57.7034 157.067 57.7149 157.056 57.7379L157.044 57.7264Z" fill="#565656"/>
<path d="M82.462 76.5708C71.6579 76.5708 62.8926 85.3131 62.8926 96.0942C62.8926 106.875 71.6579 115.618 82.462 115.618C93.2661 115.618 102.031 106.875 102.031 96.0942C102.031 85.3131 93.2661 76.5708 82.462 76.5708ZM95.086 99.446H85.8253V108.684H79.0872V99.446H69.8265V92.7309H79.0872V83.4932H85.8253V92.7309H95.086V99.446Z" fill="#565656"/>
</g>
<defs>
<clipPath id="clip0_1574_25376">
<rect width="166.957" height="160" fill="white"/>
</clipPath>
</defs>
</svg>
